<svg id="visual" viewBox="0 0 960 300" width="960" height="300" xmlns="http://www.w3.org/2000/svg" xmlns:xlink="http://www.w3.org/1999/xlink" version="1.1"><rect x="0" y="0" width="960" height="300" fill="#C58940"></rect><path d="M0 125L22.8 132.8C45.7 140.7 91.3 156.3 137 162.2C182.7 168 228.3 164 274 160C319.7 156 365.3 152 411.2 159.2C457 166.3 503 184.7 548.8 189.5C594.7 194.3 640.3 185.7 686 172.5C731.7 159.3 777.3 141.7 823 136.5C868.7 131.3 914.3 138.7 937.2 142.3L960 146L960 301L937.2 301C914.3 301 868.7 301 823 301C777.3 301 731.7 301 686 301C640.3 301 594.7 301 548.8 301C503 301 457 301 411.2 301C365.3 301 319.7 301 274 301C228.3 301 182.7 301 137 301C91.3 301 45.7 301 22.8 301L0 301Z" fill="#E5BA73" stroke-linecap="round" stroke-linejoin="miter"></path></svg>